<svg fill="none" height="147" viewBox="0 0 405 147" width="405" xmlns="http://www.w3.org/2000/svg"><path d="m31.6971 17.627h48.9672c2.5066 11.0904-5.096 17.6629-9.2106 19.5628l15.4469 35.9582h-9.3694v19.4984c-2.5066 9.7236-12.6928 10.4666-17.4727 9.6226v12.155h-47.3533c5.0645-11.142 3.7983-22.7061 2.5322-27.0953-13.16778-16.004-15.615628-27.0953-15.1935763-30.6405 0-29.5768 21.1021763-38.3645 31.6532763-39.0612z" fill="#5c3bfe" opacity=".2"/><path d="m67.7383 52.6978 124.9197 61.7282h141.861c26.647 0 48.25-21.6021 48.25-48.25s-21.603-48.2502-48.25-48.2502h-180.701z" fill="#5c3bfe"/><path d="m334.285 31.8999-6.49-7.4116-6.49 7.4116h3.903v10.352h5.173v-10.352z" fill="#fff"/><path clip-rule="evenodd" d="m244.824 146.181v-31.746h1v31.746z" fill="#ded8ff" fill-rule="evenodd"/><path clip-rule="evenodd" d="m244.824 114.435v-67.2739h1v67.2739z" fill="#fff" fill-rule="evenodd" opacity=".5"/><path clip-rule="evenodd" d="m238.357 138.542h110.081v1h-110.081z" fill="#ded8ff" fill-rule="evenodd"/><path d="m251.842 69.2783h18.744v46.2077h-18.744z" fill="#ded8ff"/><path d="m283.693 86.292h18.744v29.192h-18.744z" fill="#8870fc"/><path d="m315.541 52.8311h18.744v62.6549h-18.744z" fill="#3922a9"/><path d="m251.842 114.433h18.744v17.727h-18.744z" fill="#ded8ff"/><path d="m283.693 114.433h18.744v17.727h-18.744z" fill="#8870fc"/><path d="m315.541 114.433h18.744v17.727h-18.744z" fill="#3922a9"/><path clip-rule="evenodd" d="m325.323 59.4703-31.943 35.9113-32.81-19.8844.519-.8552 32.097 19.4529 31.39-35.2892z" fill="#fff" fill-rule="evenodd"/><path d="m262.237 75.2291c0 .6664-.54 1.2066-1.206 1.2066-.667 0-1.207-.5402-1.207-1.2066s.54-1.2066 1.207-1.2066c.666 0 1.206.5402 1.206 1.2066z" fill="#5c3bfe"/><path d="m294.525 94.363c0 .8061-.654 1.4596-1.46 1.4596s-1.46-.6535-1.46-1.4596c0-.8062.654-1.4597 1.46-1.4597s1.46.6535 1.46 1.4597z" fill="#5c3bfe"/><path d="m326.376 59.1384c0 .8061-.653 1.4596-1.459 1.4596s-1.46-.6535-1.46-1.4596c0-.8062.654-1.4597 1.46-1.4597s1.459.6535 1.459 1.4597z" fill="#5c3bfe"/><path d="m160.322 55.4639s-11.762 13.8175-26.272 13.8175-26.273-13.8175-26.273-13.8175 11.763-13.8174 26.273-13.8174 26.272 13.8174 26.272 13.8174z" fill="#ded8ff"/><path d="m142.999 55.4622c0 4.9422-4.007 8.9486-8.949 8.9486s-8.948-4.0064-8.948-8.9486c0-4.9421 4.006-8.9485 8.948-8.9485s8.949 4.0064 8.949 8.9485z" fill="#fff"/><path d="m137.283 55.462c0 1.7847-1.447 3.2314-3.231 3.2314-1.785 0-3.232-1.4467-3.232-3.2314s1.447-3.2315 3.232-3.2315c1.784 0 3.231 1.4468 3.231 3.2315z" fill="#5c3bfe"/><g clip-rule="evenodd" fill-rule="evenodd"><path d="m230.977 0h31.755v15.8779h-1v-14.8779h-29.755v14.8779h-1z" fill="#5c3bfe"/><path d="m230.977 31.7559h31.755v-15.8779h-1v14.8779h-29.755v-14.8779h-1z" fill="#ded8ff"/><path d="m237.082 25.6484h19.542v-9.7708h-1v8.7708h-17.542v-8.7708h-1z" fill="#3922a9"/><path d="m237.082 6.10742h19.542v9.77078h-1v-8.77078h-17.542v8.77078h-1z" fill="#8870fc"/><path d="m243.027 19.707h7.657v-3.8282h-1v2.8282h-5.657v-2.8282h-1z" fill="#8870fc"/><path d="m243.027 12.0488h7.657v3.8282h-1v-2.8282h-5.657v2.8282h-1z" fill="#5c3bfe"/></g><path d="m290.067 54.3902c-7.51 0-13.598-6.0878-13.598-13.5975 0-7.5096 6.088-13.5974 13.598-13.5974v13.5974h13.597c0 7.5097-6.088 13.5975-13.597 13.5975z" fill="#ded8ff"/><path d="m292.958 37.867h11.976c0-9.8948-7.972-12.1302-11.976-12.011z" fill="#8870fc"/><path d="m219.691 36.084v8.073h-45.135v-8.073z" fill="#8870fc"/><path clip-rule="evenodd" d="m174.556 39.9707h45.135v.3h-45.135z" fill="#3922a9" fill-rule="evenodd"/><path d="m219.691 44.1562v8.0731h-45.135v-8.0731z" fill="#3922a9"/><path d="m219.691 44.1563v8.0716l14.899-8.0717z" fill="#ded8ff"/><path d="m219.691 44.1562v-8.0716l14.899 8.0716z" fill="#fff"/><path d="m234.59 44.1562h-7.45v-4.0358z" fill="#3922a9"/><path d="m234.59 44.1562-7.45.0001v4.0358z" fill="#04020e"/><g clip-rule="evenodd" fill-rule="evenodd"><path d="m174.556 48.043h45.135v.3h-45.135z" fill="#8870fc"/><g fill="#ae9dff"><path d="m230.972 95.0059h-8.556v8.5561h8.556zm-.5.8535-7.202 7.2026h7.202zm-7.556 6.8486 7.202-7.2021h-7.202z"/><path d="m230.972 87.332h-8.556v8.556h8.556zm-.5.8536-7.202 7.2024h7.202zm-7.556 6.8489 7.202-7.2025h-7.202z"/><path d="m230.972 102.961h-8.556v8.556h8.556zm-.5.853-7.202 7.203h7.202zm-7.556 6.849 7.202-7.202h-7.202z"/><path d="m223.16 102.961h-8.556v8.556h8.556zm-.5.853-7.203 7.203h7.203zm-7.556 6.849 7.202-7.202h-7.202z"/><path d="m238.863 95.0059h-8.556v8.5561h8.556zm-.5.8535-7.203 7.2026h7.203zm-7.556 6.8486 7.202-7.2021h-7.202z"/><path d="m238.863 102.961h-8.556v8.556h8.556zm-.5.853-7.203 7.203h7.203zm-7.556 6.849 7.202-7.202h-7.202z"/></g><path d="m179.023 66.6643c1.037-.7465 2.266-.9905 3.093-.9905h13.989c1.921 0 3.091.8365 3.725 1.9294.604 1.0409.695 2.2612.601 3.0811v23.3592c0 2.3577-1.02 3.7518-2.35 4.4822-1.062.5829-2.278.7206-3.233.6629-.111 3.4994-1.275 5.6874-2.791 6.9714-1.58 1.338-3.472 1.635-4.75 1.496-.216-.024-.392-.185-.435-.398-.043-.214.057-.431.247-.536.099-.056.248-.195.43-.448.176-.243.353-.549.522-.885.339-.67.626-1.411.784-1.886.087-.262.37-.403.632-.316s.404.37.316.632c-.169.51-.473 1.298-.839 2.022-.143.281-.298.56-.462.811.915-.107 1.978-.466 2.908-1.255 1.32-1.117 2.447-3.157 2.447-6.7631 0-.1462.064-.285.175-.38s.258-.1367.402-.114c.858.1345 2.13.0776 3.166-.4908.992-.5447 1.831-1.5915 1.831-3.6056v-23.3887c0-.0202.001-.0404.003-.0605.082-.6737.003-1.6761-.469-2.4891-.449-.7741-1.283-1.4314-2.86-1.4314h-13.989c-.667 0-1.678.2042-2.509.802-.804.5794-1.472 1.5496-1.472 3.179v10.1643c0 .2761-.224.5-.5.5s-.5-.2239-.5-.5v-10.1643c0-1.9553.826-3.2257 1.888-3.9905z" fill="#fff"/></g><path d="m165.701 111.649v-37.1822h5.107c1.598 0 3.217.1335 4.696.7369 7.857 3.2049 9.025 11.4505 8.546 15.4854l4.42 11.5499h-4.42c1.026 6.387-3.375 8.935-5.704 9.41z" fill="#947eff"/><path clip-rule="evenodd" d="m177.504 103.222c.271-.051.532.127.583.399.139.74 1.531 2.851 6.639 2.851.276 0 .5.224.5.5 0 .277-.224.5-.5.5-5.323 0-7.353-2.234-7.622-3.667-.051-.271.128-.533.4-.583z" fill="#fff" fill-rule="evenodd"/><path d="m181.842 74.4668h14.152v1.7293h-14.152z" fill="#3922a9"/><path d="m189.686 78.6152h6.309v1.673h-6.309z" fill="#3922a9"/><path clip-rule="evenodd" d="m378.575 106.234c13.807 0 25-11.1929 25-25.0002s-11.193-25.0004-25-25.0004c-13.808 0-25.001 11.1931-25.001 25.0004s11.193 25.0002 25.001 25.0002zm0 1c14.359 0 26-11.6406 26-26.0002s-11.641-26.0004-26-26.0004c-14.36 0-26.001 11.6408-26.001 26.0004s11.641 26.0002 26.001 26.0002z" fill="#3922a9" fill-rule="evenodd"/><path clip-rule="evenodd" d="m378.578 98.26c9.403 0 17.027-7.6233 17.027-17.027s-7.624-17.0269-17.027-17.0269c-9.404 0-17.027 7.6232-17.027 17.0269s7.623 17.027 17.027 17.027zm0 1c9.956 0 18.027-8.071 18.027-18.027s-8.071-18.0269-18.027-18.0269-18.027 8.0709-18.027 18.0269 8.071 18.027 18.027 18.027z" fill="#8870fc" fill-rule="evenodd"/><path clip-rule="evenodd" d="m378.575 89.5921c4.617 0 8.36-3.7429 8.36-8.36s-3.743-8.36-8.36-8.36-8.36 3.7429-8.36 8.36 3.743 8.36 8.36 8.36zm0 1c5.169 0 9.36-4.1906 9.36-9.36s-4.191-9.36-9.36-9.36c-5.17 0-9.36 4.1906-9.36 9.36s4.19 9.36 9.36 9.36z" fill="#ded8ff" fill-rule="evenodd"/></svg>